<?xml version="1.0" encoding="UTF-8"?>
<svg xmlns="http://www.w3.org/2000/svg" xmlns:xlink="http://www.w3.org/1999/xlink" viewBox="0 0 197.55 224.93">
  <defs>
    <style>
      .cls-1 {
        fill: url(#linear-gradient-2);
      }

      .cls-1, .cls-2 {
        mix-blend-mode: multiply;
      }

      .cls-3, .cls-4, .cls-5, .cls-6 {
        fill: #fff;
      }

      .cls-7 {
        isolation: isolate;
      }

      .cls-4 {
        font-size: 46.86px;
      }

      .cls-4, .cls-6 {
        font-family: 29LTKaff-SemiBold, '29LT Kaff';
        font-weight: 600;
      }

      .cls-5 {
        font-family: 29LTKaff-Regular, '29LT Kaff';
        font-size: 24.8px;
      }

      .cls-2 {
        fill: url(#linear-gradient);
      }

      .cls-6 {
        font-size: 16.35px;
      }
    </style>
    <linearGradient id="linear-gradient" x1="89.25" y1="81.45" x2="98.48" y2="86.62" gradientUnits="userSpaceOnUse">
      <stop offset="0" stop-color="#000" stop-opacity=".4"/>
      <stop offset="1" stop-color="#fff" stop-opacity="0"/>
    </linearGradient>
    <linearGradient id="linear-gradient-2" x1="60.3" y1="68.42" x2="49.4" y2="62.39" xlink:href="#linear-gradient"/>
  </defs>
  <g class="cls-7">
    <g id="Layer_2" data-name="Layer 2">
      <g id="Layer_1-2" data-name="Layer 1">
        <g>
          <g>
            <text class="cls-5" transform="translate(124.4 140.5)"><tspan x="0" y="0">مخطط</tspan></text>
            <text class="cls-4" transform="translate(0 178.36)"><tspan x="0" y="0">المنصورية</tspan></text>
            <text class="cls-6" transform="translate(38.21 213.69)"><tspan x="0" y="0">..</tspan><tspan x="8.5" y="0">إستثمار من ذهب</tspan></text>
          </g>
          <g>
            <path class="cls-3" d="M146.1,65.3L84.82,4.02c-5.35-5.35-14.04-5.35-19.39,0L4.14,65.3c-5.35,5.35-5.35,14.04,0,19.39l61.29,61.29c5.35,5.35,14.04,5.35,19.39,0l61.29-61.29c5.35-5.35,5.35-14.04,0-19.39ZM143.5,80.24l-63.14,63.14c-2.89,2.9-7.59,2.9-10.48,0L6.74,80.24c-2.9-2.9-2.9-7.59,0-10.49L69.88,6.62c2.89-2.89,7.59-2.89,10.48,0l63.14,63.14c2.9,2.89,2.9,7.59,0,10.49Z"/>
            <path class="cls-3" d="M132.99,72.74l-13.53,13.53c-6.26,6.26-15.14,8.3-23.11,6.11-3.22-.88-6.3-2.46-8.99-4.73-5.18,8.3-9.42,17.14-5.39,19.08,2.27.44,3.11-.73,4.38-1.49,11.91-7.14,11.91,17.62-4.98,13.12-15.76-6-6.45-21.57,3.52-33.07,2.82-3.26,5.7-6.18,8.08-8.48,3.16-3.06,5.44-4.98,5.52-5.04-.05.1-2,2.6-4.6,6.22,2.17,2.47,5.35,4.04,8.9,4.04.39,0,.79-.02,1.17-.06,5.99-.59,10.67-5.63,10.67-11.77,0-6.53-5.3-11.83-11.83-11.83-2.08,0-4.02.53-5.72,1.47-5.44,2.45-33.26,36.32-33.26,36.32-9.28,9.28-24.32,9.28-33.59,0l-13.53-13.53c-1.48-1.48-1.48-3.87,0-5.35l13.53-13.53c8.79-8.79,22.76-9.25,32.1-1.38,5.18-8.3,9.42-17.14,5.39-19.08-2.27-.44-3.11.73-4.38,1.49-11.91,7.14-11.91-17.62,4.98-13.12,15.76,6,6.45,21.57-3.52,33.07-2.82,3.26-5.7,6.18-8.08,8.48-3.16,3.06-5.44,4.98-5.52,5.04.05-.1,2-2.6,4.6-6.22-2.17-2.47-5.35-4.04-8.9-4.04-6.54,0-11.83,5.3-11.83,11.83s5.3,11.83,11.83,11.83c2.08,0,4.02-.53,5.72-1.47,5.44-2.45,33.26-36.32,33.26-36.32,9.28-9.28,24.32-9.28,33.59,0l13.53,13.53c1.48,1.48,1.48,3.87,0,5.35Z"/>
            <g>
              <path class="cls-2" d="M103.96,81.96l-7.61,10.41c-3.22-.88-6.3-2.46-8.99-4.73l6.53-9.66c2.17,2.47,5.35,4.04,8.9,4.04.39,0,.79-.02,1.17-.06Z"/>
              <path class="cls-1" d="M45.72,68.04l7.61-10.41c3.22.88,6.3,2.46,8.99,4.73l-6.53,9.66c-2.17-2.47-5.35-4.04-8.9-4.04-.39,0-.79.02-1.17.06Z"/>
            </g>
          </g>
        </g>
      </g>
    </g>
  </g>
</svg>